<svg xmlns="http://www.w3.org/2000/svg" xmlns:xlink="http://www.w3.org/1999/xlink" version="1.1" width="1680pt" height="560pt" viewBox="0 0 1680 560">
<defs>
<clipPath id="clip_0">
<path transform="matrix(1,0,0,-1,0,560)" d="M8 8H1672V552H8Z"/>
</clipPath>
</defs>
<path transform="matrix(1,0,0,-1,0,560)" d="M0 560H1680V0H0Z" fill="#ffffff"/>
<path transform="matrix(1,0,0,-1,0,560)" d="M0 560H1680V0H0Z" fill="#ffffff"/>
<g clip-path="url(#clip_0)">
<path transform="matrix(1,0,0,-1,0,560)" d="M175.1324 368.5088H1639.5614V370.0215H175.1324Z"/>
<path transform="matrix(1,0,0,-1,0,560)" d="M175.1324 351.761H1639.5614V353.2737H175.1324Z"/>
<path transform="matrix(1,0,0,-1,0,560)" d="M175.1324 335.0132H1639.5614V336.52595H175.1324Z"/>
<path transform="matrix(1,0,0,-1,0,560)" d="M175.1324 318.2654H1639.5614V319.77815H175.1324Z"/>
<path transform="matrix(1,0,0,-1,0,560)" d="M175.1324 301.5176H1639.5614V303.03034H175.1324Z"/>
<text xml:space="preserve" transform="matrix(.5 0 0 .5 8 8)" font-size="73" font-family="TimesNewRomanPS" font-weight="bold"><tspan y="465.2218" x="64.83025 113.521259 150.02126 178.43286">Bass</tspan></text>
<path transform="matrix(1,0,0,-1,0,560)" d="M199.5599 369.3732C200.3378 369.438 203.1255 369.3732 204.1628 369.3084 211.9424 368.4008 217.1937 364.7703 219.1386 358.8059 219.7221 356.9906 219.9166 355.5644 219.9166 353.2305 219.9166 351.2856 219.8517 350.3131 219.5276 348.5627 217.842 340.3941 211.8776 333.2628 201.4399 327.0391 197.6798 324.77 193.0768 322.4361 188.0849 320.2967 187.2421 319.9077 186.4641 319.5836 186.3345 319.5187 186.2048 319.4539 186.0103 319.3891 185.9455 319.3891 185.6213 319.3891 185.2324 319.7781 185.2324 320.1022 185.2324 320.4264 185.362 320.556 186.3345 321.1395 192.8175 324.9645 197.4205 328.0763 201.1158 331.3827 202.2179 332.3551 204.5518 334.6242 205.3297 335.5966 209.4141 340.3293 211.5534 344.9322 212.1369 350.2483 212.2666 351.1559 212.2666 354.0733 212.1369 354.9809 211.6183 359.3245 210.1272 362.8253 207.7285 365.1592 206.367 366.5207 204.9408 367.3635 203.2552 367.7524 199.7543 368.5952 195.9942 367.4283 193.401 364.6406 192.234 363.344 191.1319 361.4639 190.5485 359.8431L190.354 359.3893 190.8726 359.6487C191.7154 360.1025 192.234 360.1673 193.2713 360.1673 193.9196 360.1673 194.2438 360.1673 194.6976 360.0376 198.8467 359.0003 200.8565 354.5271 198.9116 350.5724 197.9391 348.433 195.8645 347.0716 193.5955 346.8771 190.4188 346.6826 187.3069 348.7572 186.2697 351.7394 185.8807 352.9711 185.8159 354.5919 186.2048 356.6665 187.0476 361.5287 190.1595 365.7427 194.4383 367.8821 195.9294 368.6601 197.8743 369.1787 199.5599 369.3732ZM224.5843 363.9275C226.3996 364.3813 228.2797 363.2792 228.6686 361.4639 229.3169 358.9356 227.1127 356.7313 224.5843 357.3796 222.4449 357.8334 221.3428 360.2322 222.3801 362.2419 222.7691 363.0847 223.6767 363.733 224.5843 363.9275ZM224.5843 347.7199C226.3996 348.1737 228.2797 347.0716 228.6686 345.2564 229.1225 343.3763 228.0203 341.561 226.2051 341.1721 224.325 340.7183 222.5098 341.8204 222.1208 343.6356 221.667 345.4509 222.7691 347.3309 224.5843 347.7199Z"/>
<path transform="matrix(1,0,0,-1,0,560)" d="M265.3193 376.699C265.7731 376.9584 266.4863 376.7639 266.7456 376.1804 266.8753 375.9211 266.8753 375.7266 266.8753 371.1885 266.8753 368.5304 266.8753 366.391 266.9401 366.391 266.9401 366.391 267.5236 366.6504 268.2367 366.9097 269.7278 367.4931 269.9223 367.558 270.3113 367.2338 270.7651 366.9097 270.7651 366.8448 270.7651 364.2516 270.7651 362.0474 270.7651 361.8529 270.6354 361.6584 270.5706 361.5288 270.4409 361.3991 270.3761 361.3343 270.2464 361.2694 269.4685 360.8805 268.5608 360.5563L266.9401 359.8432 266.8753 354.5919C266.8753 351.7394 266.8753 349.3407 266.9401 349.3407 266.9401 349.3407 267.5236 349.6 268.2367 349.8593 269.7278 350.4428 269.9223 350.5076 270.3113 350.1835 270.7651 349.8593 270.7651 349.7945 270.7651 347.2013 270.7651 344.9971 270.7651 344.8026 270.6354 344.6081 270.5706 344.4784 270.4409 344.3487 270.3761 344.2839 270.2464 344.2191 269.4685 343.8301 268.5608 343.506L266.9401 342.7928 266.8753 337.3471C266.8753 332.42 266.8104 331.8365 266.7456 331.642 266.2918 330.8641 265.1897 330.8641 264.7359 331.642 264.671 331.8365 264.6062 332.3552 264.6062 336.8933V341.8852L261.8185 340.7831 259.0956 339.681V334.4297C259.0956 328.8543 259.0956 328.984 258.7715 328.6598 258.6418 328.4653 258.188 328.2708 257.9935 328.2708 257.7342 328.2708 257.2804 328.4653 257.1507 328.6598 256.8266 328.984 256.8266 328.8543 256.8266 333.9111 256.8266 336.5691 256.8266 338.7085 256.7617 338.7085 256.7617 338.7085 256.1783 338.4492 255.4651 338.1899 253.974 337.6064 253.7796 337.5416 253.3906 337.8657 252.9368 338.1899 252.9368 338.2547 252.9368 340.8479 252.9368 343.0521 252.9368 343.2466 253.0664 343.4411 253.1313 343.5708 253.2609 343.7004 253.3257 343.7653 253.4554 343.8301 254.2334 344.2191 255.141 344.5432L256.8266 345.2564V350.5076C256.8266 353.3601 256.8266 355.7589 256.7617 355.7589 256.7617 355.7589 256.1783 355.4995 255.4651 355.2402 253.974 354.6568 253.7796 354.5919 253.3906 354.9161 252.9368 355.2402 252.9368 355.3051 252.9368 357.8983 252.9368 360.1025 252.9368 360.297 253.0664 360.4915 253.1313 360.6211 253.2609 360.7508 253.3257 360.8156 253.4554 360.8804 254.2334 361.2694 255.141 361.5936L256.8266 362.3067V367.7525C256.8266 372.6795 256.8914 373.263 256.9562 373.4575 257.41 374.2355 258.5122 374.2355 258.966 373.4575 259.0308 373.263 259.0956 372.7444 259.0956 368.2063L259.1604 363.2143 261.8833 364.3165 264.6062 365.4186V370.6698C264.6062 375.5969 264.6062 375.9211 264.7359 376.1804 264.8655 376.4397 264.9952 376.5694 265.3193 376.699ZM264.6062 353.6843V358.9355L261.8185 357.8334 259.0956 356.7313V351.4152 346.164L259.2901 346.2288C259.4198 346.2936 260.6515 346.8123 262.0778 347.3309L264.6062 348.3682V353.6843Z"/>
<path transform="matrix(1,0,0,-1,0,560)" d="M287.4697 351.5773C287.9235 351.8366 288.6366 351.6421 288.8959 351.0587 289.0256 350.7993 289.0256 350.6049 289.0256 346.0667 289.0256 343.4087 289.0256 341.2693 289.0904 341.2693 289.0904 341.2693 289.6739 341.5286 290.387 341.7879 291.8781 342.3714 292.0726 342.4363 292.4616 342.1121 292.9154 341.7879 292.9154 341.7231 292.9154 339.1299 292.9154 336.9257 292.9154 336.7312 292.7858 336.5367 292.7209 336.4071 292.5913 336.2774 292.5265 336.2126 292.3968 336.1477 291.6188 335.7587 290.7112 335.4346L289.0905 334.7215 289.0256 329.4702C289.0256 326.6177 289.0256 324.219 289.0905 324.219 289.0905 324.219 289.674 324.4783 290.3871 324.7376 291.8782 325.3211 292.0727 325.3859 292.4617 325.0617 292.9155 324.7376 292.9155 324.6728 292.9155 322.0796 292.9155 319.8753 292.9155 319.6808 292.7858 319.4864 292.721 319.3567 292.5914 319.227 292.5265 319.1622 292.3969 319.0974 291.6189 318.7084 290.7113 318.3842L289.0905 317.6711 289.0257 312.2254C289.0257 307.2983 288.9609 306.7148 288.8961 306.5203 288.4422 305.7423 287.3401 305.7423 286.8863 306.5203 286.8215 306.7148 286.7567 307.2334 286.7567 311.7716V316.7635L283.969 315.6614 281.2461 314.5592V309.308C281.2461 303.7326 281.2461 303.8623 280.9219 303.5381 280.7923 303.3436 280.3385 303.1491 280.144 303.1491 279.8847 303.1491 279.4308 303.3436 279.3012 303.5381 278.977 303.8623 278.977 303.7326 278.977 308.7894 278.977 311.4474 278.977 313.5868 278.9122 313.5868 278.9122 313.5868 278.3287 313.3275 277.6156 313.0682 276.1245 312.4847 275.93 312.4199 275.541 312.744 275.0872 313.0682 275.0872 313.133 275.0872 315.7262 275.0872 317.9304 275.0872 318.1249 275.2169 318.3194 275.2817 318.449 275.4114 318.5787 275.4762 318.6435 275.6059 318.7084 276.3838 319.0974 277.2915 319.4215L278.977 320.1346V325.3859C278.977 328.2384 278.977 330.6372 278.9122 330.6372 278.9122 330.6372 278.3287 330.3778 277.6156 330.1185 276.1245 329.535 275.93 329.4702 275.541 329.7944 275.0872 330.1185 275.0872 330.1833 275.0872 332.7765 275.0872 334.9808 275.0872 335.1753 275.2169 335.3697 275.2817 335.4994 275.4114 335.6291 275.4762 335.6939 275.6059 335.7587 276.3838 336.1477 277.2915 336.4719L278.977 337.185V342.6307C278.977 347.5578 279.0419 348.1413 279.1067 348.3358 279.5605 349.1138 280.6626 349.1138 281.1164 348.3358 281.1813 348.1413 281.2461 347.6227 281.2461 343.0845L281.3109 338.0926 284.0338 339.1947 286.7566 340.2969V345.5481C286.7566 350.4752 286.7566 350.7994 286.8863 351.0587 287.016 351.318 287.1456 351.4477 287.4698 351.5773ZM286.7565 328.5626V333.8138L283.9688 332.7117 281.2459 331.6096V326.2935 321.0423L281.4404 321.1071C281.5701 321.1719 282.8018 321.6905 284.2281 322.2092L286.7565 323.2465V328.5626Z"/>
<path transform="matrix(1,0,0,-1,0,560)" d="M333.1966 368.055C333.7801 368.2495 334.1042 368.3143 334.3635 368.1198 334.558 367.9902 334.6877 367.666 334.6877 367.4715 334.6228 367.3419 330.5385 362.4796 325.5466 356.58 320.5547 350.6805 316.4055 345.8182 316.3407 345.7534 316.2759 345.6237 316.6 345.6237 321.8513 345.6237H327.4915V350.7453C327.4915 355.4779 327.5564 355.8669 327.6212 356.0614 327.686 356.191 328.075 356.4504 328.853 356.969 331.1869 358.5249 331.8352 359.3029 332.8724 361.6368 333.1318 362.2851 333.3911 362.8037 333.4559 362.8686 333.7152 363.1279 334.2987 362.9982 334.4284 362.6092 334.558 362.4148 334.558 361.3775 334.558 354.0517V345.6237H336.8919C339.161 345.6237 339.2906 345.6237 339.4851 345.4941 340.0038 345.1699 340.0038 344.3271 339.4851 344.003 339.2906 343.8733 339.161 343.8733 336.8919 343.8733H334.558V343.1602C334.558 341.9284 334.7525 340.7615 335.2063 339.8538 335.9843 338.2331 337.2161 337.3255 338.8368 337.131 339.4851 337.0661 339.6796 336.9365 339.6796 336.4826 339.6796 336.1585 339.6148 336.0937 339.4851 335.964 339.3555 335.8344 339.2906 335.8344 338.4479 335.8344 337.5402 335.8344 336.9568 335.8992 333.9097 336.353 331.9648 336.6771 330.0847 336.6771 328.1398 336.353 325.0928 335.8992 324.5094 335.8344 323.6017 335.8344 322.7589 335.8344 322.6941 335.8344 322.5644 335.964 322.4348 336.0937 322.4348 336.1585 322.4348 336.4826 322.4348 336.9365 322.5644 337.0661 323.2127 337.131 324.8335 337.3254 326.0653 338.2331 326.8432 339.8538 327.297 340.7615 327.4915 341.9284 327.4915 343.1602V343.8733H321.6568C315.3683 343.8733 315.4979 343.8733 314.9793 344.1975 314.5903 344.4568 314.331 345.0403 314.3958 345.3644 314.4607 345.4941 314.7848 345.883 315.109 346.3369 316.7297 348.2818 318.545 350.8101 319.7119 352.8847 320.4251 354.0517 321.5272 356.3855 321.981 357.5525 323.2128 360.5995 323.7962 363.2576 323.9259 366.3046 323.9907 367.666 324.0555 367.8605 324.4445 368.055L324.7038 368.1846 325.6763 367.9253C327.1026 367.5363 327.8805 367.4067 328.853 367.3419 330.1496 367.277 331.511 367.5363 333.1966 368.055Z"/>
<path transform="matrix(1,0,0,-1,0,560)" d="M333.1966 334.5594C333.7801 334.7539 334.1042 334.8187 334.3635 334.6242 334.558 334.4945 334.6877 334.1704 334.6877 333.9759 334.6228 333.8462 330.5385 328.984 325.5466 323.0844 320.5547 317.1848 316.4055 312.3226 316.3407 312.2577 316.2759 312.1281 316.6 312.1281 321.8513 312.1281H327.4915V317.2497C327.4915 321.9823 327.5564 322.3713 327.6212 322.5658 327.686 322.6954 328.075 322.9547 328.853 323.4734 331.1869 325.0293 331.8352 325.8073 332.8724 328.1412 333.1318 328.7895 333.3911 329.3081 333.4559 329.3729 333.7152 329.6323 334.2987 329.5026 334.4284 329.1136 334.558 328.9191 334.558 327.8818 334.558 320.556V312.1281H336.8919C339.161 312.1281 339.2906 312.1281 339.4851 311.9984 340.0038 311.6743 340.0038 310.8315 339.4851 310.5073 339.2906 310.3777 339.161 310.3777 336.8919 310.3777H334.558V309.6645C334.558 308.4328 334.7525 307.2658 335.2063 306.3582 335.9843 304.7375 337.2161 303.8298 338.8368 303.6353 339.4851 303.5705 339.6796 303.4408 339.6796 302.987 339.6796 302.6629 339.6148 302.598 339.4851 302.4684 339.3555 302.3387 339.2906 302.3387 338.4479 302.3387 337.5402 302.3387 336.9568 302.4036 333.9097 302.8574 331.9648 303.1815 330.0847 303.1815 328.1398 302.8574 325.0928 302.4036 324.5094 302.3387 323.6017 302.3387 322.7589 302.3387 322.6941 302.3387 322.5644 302.4684 322.4348 302.598 322.4348 302.6629 322.4348 302.987 322.4348 303.4408 322.5644 303.5705 323.2127 303.6353 324.8335 303.8298 326.0653 304.7375 326.8432 306.3582 327.297 307.2658 327.4915 308.4328 327.4915 309.6645V310.3777H321.6568C315.3683 310.3777 315.4979 310.3777 314.9793 310.7018 314.5903 310.9612 314.331 311.5446 314.3958 311.8688 314.4607 311.9984 314.7848 312.3874 315.109 312.8412 316.7297 314.7861 318.545 317.3145 319.7119 319.3891 320.4251 320.556 321.5272 322.8899 321.981 324.0569 323.2128 327.1039 323.7962 329.7619 323.9259 332.809 323.9907 334.1704 324.0555 334.3649 324.4445 334.5594L324.7038 334.689 325.6763 334.4297C327.1026 334.0407 327.8805 333.9111 328.853 333.8462 330.1496 333.7814 331.511 334.0407 333.1966 334.5594Z"/>
<path transform="matrix(1,0,0,-1,0,560)" d="M382.3001 467.9422C382.8836 467.9908 384.245 467.9422 384.7798 467.8449 386.6761 467.456 387.8431 466.4835 388.2807 464.879 388.3779 464.5872 388.3779 464.3927 388.3779 463.8093 388.3779 463.0799 388.3779 462.7882 388.1348 462.0588 387.0651 458.7525 383.1753 455.6893 379.1882 454.9599 378.313 454.8141 376.8543 454.8141 376.2222 454.9113 374.2287 455.3489 373.0132 456.3214 372.5755 457.9259 372.4783 458.2177 372.4783 458.4121 372.4783 458.9956 372.4783 459.725 372.4783 460.0167 372.7214 460.746 373.1104 462.0102 373.937 463.2258 375.0553 464.3441 377.0002 466.289 379.6745 467.6018 382.3001 467.9422Z"/>
<path transform="matrix(1,0,0,-1,0,560)" d="M387.0408 463.4635H388.33744V492.7884H387.0408Z"/>
<text xml:space="preserve" transform="matrix(.5 0 0 .5 8 8)" font-size="82" font-family="Helvetica"><tspan y="188.267" x="782.2849 830.1729 852.9525 898.5609 944.1693">= 120</tspan></text>
<path transform="matrix(1,0,0,-1,0,560)" d="M381.0764 302.2739H389.72044V369.26515H381.0764Z"/>
<path transform="matrix(1,0,0,-1,0,560)" d="M398.3645 302.2739H399.66114V369.26515H398.3645Z"/>
<path transform="matrix(1,0,0,-1,0,560)" d="M407.6974 347.7739C407.8918 347.8388 408.2808 347.9036 408.5401 347.9036 410.6147 347.9036 412.3003 346.218 412.3003 344.2083 412.3003 342.1337 410.6147 340.4481 408.605 340.4481 406.5304 340.4481 404.8448 342.1337 404.8448 344.1435 404.8448 345.829 406.0117 347.385 407.6974 347.7739Z"/>
<path transform="matrix(1,0,0,-1,0,560)" d="M407.6974 331.0261C407.8918 331.091 408.2808 331.1558 408.5401 331.1558 410.6147 331.1558 412.3003 329.4702 412.3003 327.4605 412.3003 325.3859 410.6147 323.7003 408.605 323.7003 406.5304 323.7003 404.8448 325.3859 404.8448 327.3956 404.8448 329.0812 406.0117 330.6372 407.6974 331.0261Z"/>
<path transform="matrix(1,0,0,-1,0,560)" d="M441.7764 344.5216C442.5544 344.5864 444.3696 344.5216 445.0828 344.392 447.6111 343.8733 449.1671 342.5767 449.7505 340.4373 449.8802 340.0483 449.8802 339.789 449.8802 339.011 449.8802 338.0386 449.8802 337.6496 449.5561 336.6771 448.1298 332.2687 442.9434 328.1844 437.6273 327.2119 436.4604 327.0175 434.5154 327.0175 433.6726 327.1471 431.0146 327.7306 429.3939 329.0272 428.8104 331.1666 428.6807 331.5556 428.6807 331.8149 428.6807 332.5929 428.6807 333.5653 428.6807 333.9543 429.0049 334.9268 429.5235 336.6123 430.6256 338.2331 432.1167 339.7242 434.7099 342.3174 438.2756 344.0678 441.7764 344.5216Z"/>
<path transform="matrix(1,0,0,-1,0,560)" d="M428.6186 281.3337H429.91523V334.08393H428.6186Z"/>
<path transform="matrix(1,0,0,-1,0,560)" d="M603.6752 344.5216C604.4532 344.5864 606.2685 344.5216 606.9816 344.392 609.51 343.8733 611.0659 342.5767 611.6494 340.4373 611.779 340.0483 611.779 339.789 611.779 339.011 611.779 338.0386 611.779 337.6496 611.4549 336.6771 610.0286 332.2687 604.8422 328.1844 599.5262 327.2119 598.3592 327.0175 596.4143 327.0175 595.5715 327.1471 592.9135 327.7306 591.2927 329.0272 590.7093 331.1666 590.5796 331.5556 590.5796 331.8149 590.5796 332.5929 590.5796 333.5653 590.5796 333.9543 590.9037 334.9268 591.4224 336.6123 592.5245 338.2331 594.0156 339.7242 596.6088 342.3174 600.1745 344.0678 603.6753 344.5216Z"/>
<path transform="matrix(1,0,0,-1,0,560)" d="M590.5213 281.3337H591.81796V334.08393H590.5213Z"/>
<path transform="matrix(1,0,0,-1,0,560)" d="M765.574 369.6433C766.352 369.7082 768.1673 369.6433 768.8804 369.5137 771.4088 368.995 772.9647 367.6984 773.5482 365.559 773.6778 365.17 773.6778 364.9107 773.6778 364.1328 773.6778 363.1603 773.6778 362.7713 773.3537 361.7989 771.9274 357.3904 766.741 353.3061 761.4249 352.3337 760.258 352.1392 758.3131 352.1392 757.4703 352.2688 754.8123 352.8523 753.1915 354.1489 752.6081 356.2883 752.4784 356.6773 752.4784 356.9366 752.4784 357.7146 752.4784 358.687 752.4784 359.076 752.8025 360.0485 753.3212 361.7341 754.4233 363.3548 755.9144 364.8459 758.5076 367.4391 762.0733 369.1895 765.5741 369.6434Z"/>
<path transform="matrix(1,0,0,-1,0,560)" d="M752.4241 298.0816H753.72067V359.21653H752.4241Z"/>
<path transform="matrix(1,0,0,-1,0,560)" d="M857.7003 378.0172C858.4782 378.0821 860.2935 378.0172 861.0066 377.8876 863.535 377.3689 865.0909 376.0723 865.6744 373.9329 865.804 373.544 865.804 373.2846 865.804 372.5067 865.804 371.5342 865.804 371.1452 865.4799 370.1728 864.0536 365.7643 858.8672 361.68 853.5512 360.7076 852.3842 360.5131 850.4393 360.5131 849.5965 360.6427 846.9385 361.2262 845.3177 362.5228 844.7343 364.6622 844.6046 365.0512 844.6046 365.3105 844.6046 366.0885 844.6046 367.0609 844.6046 367.4499 844.9288 368.4224 845.4474 370.108 846.5495 371.7287 848.0406 373.2198 850.6339 375.813 854.1995 377.5634 857.7003 378.0173Z"/>
<path transform="matrix(1,0,0,-1,0,560)" d="M844.5478 302.2523H845.8444V367.57957H844.5478Z"/>
<path transform="matrix(1,0,0,-1,0,560)" d="M921.1282 435.7702C921.6469 435.8998 922.8138 435.7702 923.2676 435.446 923.3324 435.3812 923.3324 434.4087 923.2676 429.8058 923.2028 426.6939 923.2028 424.1656 923.2028 424.1656 923.2028 424.1007 924.8235 424.3601 926.8333 424.6842 928.9078 425.0732 930.5286 425.2677 930.5934 425.2677 930.9175 425.2029 931.1768 424.9435 931.3713 424.6194L931.501 424.3601 931.6955 405.6241C931.8899 390.5835 931.9548 386.8882 931.8899 386.8882 931.8251 386.8234 931.6306 386.7585 931.4362 386.6937 930.9175 386.4992 929.8802 386.4992 929.3616 386.6937 929.1671 386.7585 928.9726 386.8234 928.9078 386.8882 928.843 386.953 928.843 387.9255 928.9078 392.5284 928.9726 395.6403 928.9726 398.1687 928.9726 398.1687 928.9726 398.2335 927.3519 397.9742 925.3422 397.65 923.2676 397.261 921.6469 397.0665 921.582 397.0665 921.2579 397.1314 920.9986 397.3907 920.8041 397.7149L920.6744 398.039 920.48 414.3114C920.3503 423.258 920.2855 431.6859 920.2206 433.0473V435.4461L920.5448 435.5757C920.7393 435.6405 920.9986 435.7054 921.1282 435.7702ZM929.232 417.6177C929.232 418.3309 929.232 418.5253 929.1672 418.5253 928.9079 418.5253 923.138 417.5529 923.138 417.4881 923.0731 417.4881 922.9435 403.8737 922.9435 403.8089 923.0083 403.8089 928.9727 404.7813 929.0375 404.8462 929.0375 404.8462 929.232 414.6355 929.232 417.6177Z"/>
<path transform="matrix(1,0,0,-1,0,560)" d="M949.8264 419.8868C950.6044 419.9516 952.4197 419.8868 953.1328 419.7571 955.6612 419.2385 957.2171 417.9419 957.8005 415.8025 957.9302 415.4135 957.9302 415.1542 957.9302 414.3762 957.9302 413.4037 957.9302 413.0148 957.6061 412.0423 956.1798 407.6339 950.9934 403.5496 945.6773 402.5771 944.5104 402.3826 942.5655 402.3826 941.7227 402.5123 939.0646 403.0957 937.4439 404.3924 936.8604 406.5318 936.7308 406.9207 936.7308 407.1801 936.7308 407.958 936.7308 408.9305 936.7308 409.3195 937.0549 410.2919 937.5735 411.9775 938.6757 413.5983 940.1668 415.0894 942.76 417.6826 946.3257 419.433 949.8265 419.8868Z"/>
<path transform="matrix(1,0,0,-1,0,560)" d="M932.3495 402.0044H962.193V403.51713H932.3495Z"/>
<path transform="matrix(1,0,0,-1,0,560)" d="M932.3495 385.2566H962.193V386.76933H932.3495Z"/>
<path transform="matrix(1,0,0,-1,0,560)" d="M936.6716 306.4014H937.9682V409.4599H936.6716Z"/>
<path transform="matrix(1,0,0,-1,0,560)" d="M1043.299 419.8868C1044.077 419.9516 1045.892 419.8868 1046.605 419.7571 1049.133 419.2385 1050.689 417.9419 1051.273 415.8025 1051.403 415.4135 1051.403 415.1542 1051.403 414.3762 1051.403 413.4037 1051.403 413.0148 1051.078 412.0423 1049.652 407.6339 1044.466 403.5496 1039.15 402.5771 1037.983 402.3826 1036.038 402.3826 1035.195 402.5123 1032.537 403.0957 1030.916 404.3924 1030.333 406.5318 1030.203 406.9207 1030.203 407.1801 1030.203 407.958 1030.203 408.9305 1030.203 409.3195 1030.527 410.2919 1031.046 411.9775 1032.148 413.5983 1033.639 415.0894 1036.232 417.6826 1039.798 419.433 1043.299 419.8868Z"/>
<path transform="matrix(1,0,0,-1,0,560)" d="M1030.135 335.7695H1032.296V408.33616H1030.135Z"/>
<path transform="matrix(1,0,0,-1,0,560)" d="M1025.813 402.0044H1055.6565V403.51713H1025.813Z"/>
<path transform="matrix(1,0,0,-1,0,560)" d="M1025.813 385.2566H1055.6565V386.76933H1025.813Z"/>
<path transform="matrix(1,0,0,-1,0,560)" d="M1367.096 403.139C1367.874 403.2038 1369.69 403.139 1370.403 403.0093 1372.931 402.4907 1374.487 401.1941 1375.07 399.0547 1375.2 398.6657 1375.2 398.4063 1375.2 397.6284 1375.2 396.6559 1375.2 396.267 1374.876 395.2945 1373.45 390.886 1368.263 386.8017 1362.947 385.8293 1361.78 385.6348 1359.835 385.6348 1358.992 385.7645 1356.334 386.3479 1354.714 387.6445 1354.13 389.7839 1354.001 390.1729 1354.001 390.4322 1354.001 391.2102 1354.001 392.1826 1354.001 392.5716 1354.325 393.5441 1354.843 395.2297 1355.945 396.8504 1357.437 398.3415 1360.03 400.9347 1363.595 402.6852 1367.096 403.139Z"/>
<path transform="matrix(1,0,0,-1,0,560)" d="M1353.941 335.7695H1356.102V391.58833H1353.941Z"/>
<path transform="matrix(1,0,0,-1,0,560)" d="M1349.619 385.2566H1379.4625V386.76933H1349.619Z"/>
<path transform="matrix(1,0,0,-1,0,560)" d="M1612.159 347.7739C1612.354 347.8388 1612.743 347.9036 1613.002 347.9036 1615.077 347.9036 1616.762 346.218 1616.762 344.2083 1616.762 342.1337 1615.077 340.4481 1613.067 340.4481 1610.992 340.4481 1609.307 342.1337 1609.307 344.1435 1609.307 345.829 1610.474 347.385 1612.159 347.7739Z"/>
<path transform="matrix(1,0,0,-1,0,560)" d="M1612.159 331.0261C1612.354 331.091 1612.743 331.1558 1613.002 331.1558 1615.077 331.1558 1616.762 329.4702 1616.762 327.4605 1616.762 325.3859 1615.077 323.7003 1613.067 323.7003 1610.992 323.7003 1609.307 325.3859 1609.307 327.3956 1609.307 329.0812 1610.474 330.6372 1612.159 331.0261Z"/>
<path transform="matrix(1,0,0,-1,0,560)" d="M1622.273 302.2739H1623.5695V369.26515H1622.273Z"/>
<path transform="matrix(1,0,0,-1,0,560)" d="M1630.917 302.2739H1639.561V369.26515H1630.917Z"/>
<path transform="matrix(1,0,0,-1,0,560)" d="M428.6186 277.1414H591.8179V285.52613H428.6186Z"/>
<path transform="matrix(1,0,0,-1,0,560)" d="M752.4241 293.8892 937.9682 302.2739V310.637L752.4241 302.2739ZM752.4241 306.4663 844.5478 310.6154V318.9785L752.4241 314.8294Z"/>
<path transform="matrix(1,0,0,-1,0,560)" d="M949.6376 421.1726C975.1159 442.7827 1013.301 442.7827 1038.779 421.1726 1013.301 438.4606 975.1159 438.4606 949.6376 421.1726Z"/>
<path transform="matrix(1,0,0,-1,0,560)" d="M1358.085 266.6443C1358.669 266.8388 1359.835 266.7739 1360.484 266.5795 1361.651 266.1905 1362.493 265.4774 1363.012 264.4401 1363.207 264.1159 1363.336 263.7269 1363.401 263.6621V263.4028L1364.049 263.9863C1365.475 265.2829 1366.967 266.1905 1368.652 266.5795 1369.106 266.7091 1369.365 266.7091 1370.338 266.7091 1371.31 266.7091 1371.44 266.7091 1372.153 266.5146 1374.941 265.8015 1376.626 263.6621 1377.015 260.4854 1377.21 258.735 1376.821 256.1418 1376.043 254.4562 1374.876 251.7334 1372.024 248.9457 1369.171 247.9084 1368.199 247.5194 1367.421 247.3897 1366.383 247.3897 1364.892 247.4546 1363.466 247.7787 1362.364 248.3622 1361.716 248.6863 1361.262 248.7512 1360.873 248.5567 1360.678 248.4918 1360.484 248.3622 1360.484 248.2974 1360.289 248.038 1358.215 241.944 1358.215 241.6847 1358.215 241.166 1358.604 240.6474 1359.317 240.3232 1359.706 240.1936 1360.484 239.9991 1360.938 239.9991 1361.392 239.9991 1361.716 239.8694 1361.845 239.6101 1362.105 239.2212 1361.975 238.7025 1361.586 238.4432 1361.391 238.3784 1361.262 238.3784 1359.9 238.4432 1355.622 238.7673 1351.667 238.7673 1347.388 238.4432 1346.027 238.3784 1345.897 238.3784 1345.702 238.4432 1345.184 238.7673 1345.184 239.675 1345.767 239.8695 1345.897 239.9343 1346.805 240.064 1347.907 240.1288 1349.787 240.2584 1350.305 240.3233 1350.824 240.5826 1351.213 240.7123 1351.537 240.9716 1351.667 241.2309 1351.797 241.4902 1358.669 261.5876 1358.733 261.9766 1358.863 262.6897 1358.798 263.2084 1358.409 263.4677 1358.215 263.5974 1358.15 263.5974 1357.761 263.5974 1356.27 263.4677 1354.455 261.3931 1352.834 257.9571 1352.639 257.5033 1352.38 256.9847 1352.25 256.855 1352.056 256.5957 1351.537 256.3364 1351.213 256.3364 1350.824 256.3364 1350.435 256.6605 1350.435 256.9847 1350.435 257.5033 1352.121 260.9393 1353.158 262.4953 1354.714 264.894 1356.335 266.2554 1358.085 266.6444ZM1369.69 263.4676C1369.106 263.7269 1368.069 263.5324 1367.226 263.0138 1365.605 261.9765 1364.049 259.3833 1363.142 256.2066 1362.169 253.0299 1362.234 251.1499 1363.142 250.3719 1364.114 249.5291 1365.865 249.9181 1367.096 251.1499 1368.199 252.252 1369.236 254.7803 1370.079 258.2164 1370.727 260.7448 1370.792 261.9765 1370.403 262.8193 1370.208 263.1435 1370.079 263.2732 1369.69 263.4676Z"/>
<path transform="matrix(1,0,0,-1,0,560)" d="M175.1324 162.0029H1639.5614V163.5156H175.1324Z"/>
<path transform="matrix(1,0,0,-1,0,560)" d="M175.1324 145.2551H1639.5614V146.76779H175.1324Z"/>
<path transform="matrix(1,0,0,-1,0,560)" d="M175.1324 128.5073H1639.5614V130.01999H175.1324Z"/>
<path transform="matrix(1,0,0,-1,0,560)" d="M175.1324 111.7594H1639.5614V113.272098H175.1324Z"/>
<path transform="matrix(1,0,0,-1,0,560)" d="M175.1324 95.01163H1639.5614V96.52432H175.1324Z"/>
<text xml:space="preserve" transform="matrix(.5 0 0 .5 8 8)" font-size="73" font-family="TimesNewRomanPS" font-weight="bold"><tspan y="878.2337" x="64.83025 117.55086 149.94826 190.55086 251.35987">Drums</tspan></text>
<path transform="matrix(1,0,0,-1,0,560)" d="M196.9018 145.3361 197.0963 145.4658H200.4026 203.709L203.9035 145.3361 204.0331 145.1416V129.2582 113.4396L203.9035 113.2451 203.709 113.1155H200.4026 197.0963L196.9018 113.2451 196.7722 113.4396V129.2582 145.1416ZM211.2293 145.3361 211.4238 145.4658H214.7301 218.0365L218.2309 145.3361 218.3606 145.1416V129.2582 113.4396L218.2309 113.2451 218.0365 113.1155H214.7301 211.4238L211.2293 113.2451 211.0996 113.4396V129.2582 145.1416Z"/>
<path transform="matrix(1,0,0,-1,0,560)" d="M265.3193 186.9355C265.7731 187.1948 266.4863 187.0004 266.7456 186.4169 266.8753 186.1576 266.8753 185.963 266.8753 181.4249 266.8753 178.7669 266.8753 176.6275 266.9401 176.6275 266.9401 176.6275 267.5236 176.8868 268.2367 177.1462 269.7278 177.7296 269.9223 177.7945 270.3113 177.4703 270.7651 177.1462 270.7651 177.0813 270.7651 174.4881 270.7651 172.2839 270.7651 172.0894 270.6354 171.8949 270.5706 171.7652 270.4409 171.6356 270.3761 171.5708 270.2464 171.5059 269.4685 171.1169 268.5608 170.7928L266.9401 170.0797 266.8753 164.8284C266.8753 161.9759 266.8753 159.5772 266.9401 159.5772 266.9401 159.5772 267.5236 159.8365 268.2367 160.0958 269.7278 160.6793 269.9223 160.7442 270.3113 160.42 270.7651 160.0958 270.7651 160.031 270.7651 157.4378 270.7651 155.2335 270.7651 155.0391 270.6354 154.8446 270.5706 154.7149 270.4409 154.5853 270.3761 154.5204 270.2464 154.4556 269.4685 154.0666 268.5608 153.7425L266.9401 153.0293 266.8753 147.5836C266.8753 142.6565 266.8104 142.073 266.7456 141.8785 266.2918 141.1006 265.1897 141.1006 264.7359 141.8785 264.671 142.073 264.6062 142.5917 264.6062 147.1298V152.1217L261.8185 151.0196 259.0956 149.9175V144.6662C259.0956 139.0908 259.0956 139.2205 258.7715 138.8964 258.6418 138.7019 258.188 138.5074 257.9935 138.5074 257.7342 138.5074 257.2804 138.7019 257.1507 138.8964 256.8266 139.2205 256.8266 139.0908 256.8266 144.1476 256.8266 146.8056 256.8266 148.945 256.7617 148.945 256.7617 148.945 256.1783 148.6857 255.4651 148.4264 253.974 147.8429 253.7796 147.7781 253.3906 148.1022 252.9368 148.4264 252.9368 148.4912 252.9368 151.0844 252.9368 153.2887 252.9368 153.4832 253.0664 153.6776 253.1313 153.8073 253.2609 153.937 253.3257 154.0018 253.4554 154.0666 254.2334 154.4556 255.141 154.7797L256.8266 155.4929V160.7441C256.8266 163.5967 256.8266 165.9954 256.7617 165.9954 256.7617 165.9954 256.1783 165.736 255.4651 165.4767 253.974 164.8932 253.7796 164.8284 253.3906 165.1526 252.9368 165.4767 252.9368 165.5415 252.9368 168.1348 252.9368 170.339 252.9368 170.5335 253.0664 170.728 253.1313 170.8576 253.2609 170.9873 253.3257 171.0521 253.4554 171.1169 254.2334 171.5059 255.141 171.8301L256.8266 172.5432V177.989C256.8266 182.916 256.8914 183.4995 256.9562 183.694 257.41 184.472 258.5122 184.472 258.966 183.694 259.0308 183.4995 259.0956 182.9809 259.0956 178.4428L259.1604 173.4509 261.8833 174.553 264.6062 175.6551V180.9063C264.6062 185.8334 264.6062 186.1575 264.7359 186.4169 264.8655 186.6762 264.9952 186.8058 265.3193 186.9355ZM264.6062 163.9208V169.172L261.8185 168.0699 259.0956 166.9678V161.6517 156.4005L259.2901 156.4653C259.4198 156.5302 260.6515 157.0488 262.0778 157.5674L264.6062 158.6047V163.9208Z"/>
<path transform="matrix(1,0,0,-1,0,560)" d="M287.4697 161.8138C287.9235 162.0731 288.6366 161.8786 288.8959 161.2952 289.0256 161.0358 289.0256 160.8413 289.0256 156.3032 289.0256 153.6452 289.0256 151.5058 289.0904 151.5058 289.0904 151.5058 289.6739 151.7651 290.387 152.0244 291.8781 152.6079 292.0726 152.6728 292.4616 152.3486 292.9154 152.0244 292.9154 151.9596 292.9154 149.3664 292.9154 147.1621 292.9154 146.9677 292.7858 146.7732 292.7209 146.6435 292.5913 146.5139 292.5265 146.449 292.3968 146.3842 291.6188 145.9952 290.7112 145.6711L289.0905 144.9579 289.0256 139.7067C289.0256 136.8542 289.0256 134.4555 289.0905 134.4555 289.0905 134.4555 289.674 134.7148 290.3871 134.9741 291.8782 135.5576 292.0727 135.6224 292.4617 135.2983 292.9155 134.9741 292.9155 134.9093 292.9155 132.3161 292.9155 130.1118 292.9155 129.9173 292.7858 129.7229 292.721 129.5932 292.5914 129.4635 292.5265 129.3987 292.3969 129.3339 291.6189 128.9449 290.7113 128.6208L289.0905 127.9076 289.0257 122.4619C289.0257 117.5348 288.9609 116.9513 288.8961 116.7568 288.4422 115.9788 287.3401 115.9788 286.8863 116.7568 286.8215 116.9513 286.7567 117.4699 286.7567 122.008V127L283.969 125.8979 281.2461 124.7958V119.5445C281.2461 113.9691 281.2461 114.0988 280.9219 113.7746 280.7923 113.5802 280.3385 113.3857 280.144 113.3857 279.8847 113.3857 279.4308 113.5802 279.3012 113.7746 278.977 114.0988 278.977 113.9691 278.977 119.0259 278.977 121.6839 278.977 123.8233 278.9122 123.8233 278.9122 123.8233 278.3287 123.564 277.6156 123.3047 276.1245 122.7212 275.93 122.6564 275.541 122.9805 275.0872 123.3047 275.0872 123.3695 275.0872 125.9627 275.0872 128.167 275.0872 128.3614 275.2169 128.5559 275.2817 128.6856 275.4114 128.8152 275.4762 128.8801 275.6059 128.9449 276.3838 129.3339 277.2915 129.658L278.977 130.3712V135.6224C278.977 138.4749 278.977 140.8736 278.9122 140.8736 278.9122 140.8736 278.3287 140.6143 277.6156 140.355 276.1245 139.7715 275.93 139.7067 275.541 140.0308 275.0872 140.355 275.0872 140.4198 275.0872 143.013 275.0872 145.2173 275.0872 145.4118 275.2169 145.6062 275.2817 145.7359 275.4114 145.8656 275.4762 145.9304 275.6059 145.9952 276.3838 146.3842 277.2915 146.7083L278.977 147.4215V152.8672C278.977 157.7943 279.0419 158.3778 279.1067 158.5723 279.5605 159.3503 280.6626 159.3503 281.1164 158.5723 281.1813 158.3778 281.2461 157.8592 281.2461 153.3211L281.3109 148.3291 284.0338 149.4312 286.7566 150.5333V155.7846C286.7566 160.7117 286.7566 161.0358 286.8863 161.2952 287.016 161.5545 287.1456 161.6841 287.4698 161.8138ZM286.7565 138.7991V144.0503L283.9688 142.9482 281.2459 141.8461V136.53 131.2788L281.4404 131.3436C281.5701 131.4084 282.8018 131.9271 284.2281 132.4457L286.7565 133.483V138.7991Z"/>
<path transform="matrix(1,0,0,-1,0,560)" d="M333.1966 161.5437C333.7801 161.7382 334.1042 161.803 334.3635 161.6085 334.558 161.4789 334.6877 161.1547 334.6877 160.9602 334.6228 160.8305 330.5385 155.9683 325.5466 150.0687 320.5547 144.1692 316.4055 139.3069 316.3407 139.2421 316.2759 139.1124 316.6 139.1124 321.8513 139.1124H327.4915V144.234C327.4915 148.9666 327.5564 149.3556 327.6212 149.5501 327.686 149.6798 328.075 149.9391 328.853 150.4577 331.1869 152.0137 331.8352 152.7916 332.8724 155.1255 333.1318 155.7738 333.3911 156.2924 333.4559 156.3573 333.7152 156.6166 334.2987 156.487 334.4284 156.098 334.558 155.9035 334.558 154.8662 334.558 147.5404V139.1125H336.8919C339.161 139.1125 339.2906 139.1125 339.4851 138.9828 340.0038 138.6587 340.0038 137.8159 339.4851 137.4917 339.2906 137.3621 339.161 137.3621 336.8919 137.3621H334.558V136.6489C334.558 135.4171 334.7525 134.2502 335.2063 133.3426 335.9843 131.7218 337.2161 130.8142 338.8368 130.6197 339.4851 130.5549 339.6796 130.4252 339.6796 129.9714 339.6796 129.6473 339.6148 129.5825 339.4851 129.4528 339.3555 129.3231 339.2906 129.3231 338.4479 129.3231 337.5402 129.3231 336.9568 129.3879 333.9097 129.8418 331.9648 130.1659 330.0847 130.1659 328.1398 129.8418 325.0928 129.3879 324.5094 129.3231 323.6017 129.3231 322.7589 129.3231 322.6941 129.3231 322.5644 129.4528 322.4348 129.5824 322.4348 129.6472 322.4348 129.9714 322.4348 130.4252 322.5644 130.5549 323.2127 130.6197 324.8335 130.8142 326.0653 131.7218 326.8432 133.3426 327.297 134.2502 327.4915 135.4172 327.4915 136.6489V137.3621H321.6568C315.3683 137.3621 315.4979 137.3621 314.9793 137.6862 314.5903 137.9455 314.331 138.529 314.3958 138.8531 314.4607 138.9828 314.7848 139.3718 315.109 139.8256 316.7297 141.7705 318.545 144.2989 319.7119 146.3734 320.4251 147.5404 321.5272 149.8743 321.981 151.0412 323.2128 154.0882 323.7962 156.7463 323.9259 159.7933 323.9907 161.1547 324.0555 161.3492 324.4445 161.5437L324.7038 161.6734 325.6763 161.4141C327.1026 161.0251 327.8805 160.8954 328.853 160.8306 330.1496 160.7658 331.511 161.0251 333.1966 161.5437Z"/>
<path transform="matrix(1,0,0,-1,0,560)" d="M333.1966 128.0481C333.7801 128.2425 334.1042 128.3074 334.3635 128.1129 334.558 127.9832 334.6877 127.6591 334.6877 127.4646 334.6228 127.3349 330.5385 122.4727 325.5466 116.5731 320.5547 110.6736 316.4055 105.8113 316.3407 105.7465 316.2759 105.6168 316.6 105.6168 321.8513 105.6168H327.4915V110.7384C327.4915 115.471 327.5564 115.86 327.6212 116.0545 327.686 116.1841 328.075 116.4435 328.853 116.9621 331.1869 118.518 331.8352 119.296 332.8724 121.6299 333.1318 122.2782 333.3911 122.7968 333.4559 122.8617 333.7152 123.121 334.2987 122.9913 334.4284 122.6024 334.558 122.4079 334.558 121.3706 334.558 114.0448V105.6168H336.8919C339.161 105.6168 339.2906 105.6168 339.4851 105.4872 340.0038 105.1631 340.0038 104.3203 339.4851 103.9961 339.2906 103.8664 339.161 103.8664 336.8919 103.8664H334.558V103.1533C334.558 101.9215 334.7525 100.7546 335.2063 99.84696 335.9843 98.22621 337.2161 97.31859 338.8368 97.1241 339.4851 97.05928 339.6796 96.92962 339.6796 96.47579 339.6796 96.15166 339.6148 96.08683 339.4851 95.95714 339.3555 95.82749 339.2906 95.82749 338.4479 95.82749 337.5402 95.82749 336.9568 95.89231 333.9097 96.34614 331.9648 96.67028 330.0847 96.67028 328.1398 96.34614 325.0928 95.89231 324.5094 95.82749 323.6017 95.82749 322.7589 95.82749 322.6941 95.82749 322.5644 95.95714 322.4348 96.0868 322.4348 96.15162 322.4348 96.47579 322.4348 96.92962 322.5644 97.05928 323.2127 97.1241 324.8335 97.31859 326.0653 98.22621 326.8432 99.84696 327.297 100.7546 327.4915 101.9215 327.4915 103.1533V103.8664H321.6568C315.3683 103.8664 315.4979 103.8664 314.9793 104.1906 314.5903 104.4499 314.331 105.0334 314.3958 105.3575 314.4607 105.4872 314.7848 105.8762 315.109 106.33 316.7297 108.2748 318.545 110.8033 319.7119 112.8778 320.4251 114.0447 321.5272 116.3786 321.981 117.5456 323.2128 120.5926 323.7962 123.2506 323.9259 126.2977 323.9907 127.6591 324.0555 127.8536 324.4445 128.0481L324.7038 128.1777 325.6763 127.9184C327.1026 127.5295 327.8805 127.3998 328.853 127.335 330.1496 127.2701 331.511 127.5294 333.1966 128.0481Z"/>
<path transform="matrix(1,0,0,-1,0,560)" d="M381.0764 95.768H389.72044V162.75925H381.0764Z"/>
<path transform="matrix(1,0,0,-1,0,560)" d="M398.3645 95.768H399.66114V162.75925H398.3645Z"/>
<path transform="matrix(1,0,0,-1,0,560)" d="M407.6974 141.2626C407.8918 141.3274 408.2808 141.3923 408.5401 141.3923 410.6147 141.3923 412.3003 139.7067 412.3003 137.6969 412.3003 135.6223 410.6147 133.9368 408.605 133.9368 406.5304 133.9368 404.8448 135.6223 404.8448 137.6321 404.8448 139.3177 406.0117 140.8736 407.6974 141.2626Z"/>
<path transform="matrix(1,0,0,-1,0,560)" d="M407.6974 124.5148C407.8918 124.5796 408.2808 124.6444 408.5401 124.6444 410.6147 124.6444 412.3003 122.9589 412.3003 120.9491 412.3003 118.8745 410.6147 117.1889 408.605 117.1889 406.5304 117.1889 404.8448 118.8745 404.8448 120.8843 404.8448 122.5699 406.0117 124.1258 407.6974 124.5148Z"/>
<path transform="matrix(1,0,0,-1,0,560)" d="M448.065 117.1025V108.4585L428.6159 89.00944V97.65347Z"/>
<path transform="matrix(1,0,0,-1,0,560)" d="M448.065 150.5982V141.9541L428.6159 122.5051V131.1491Z"/>
<path transform="matrix(1,0,0,-1,0,560)" d="M428.6186 41.3322H429.91523V127.57804H428.6186Z"/>
<path transform="matrix(1,0,0,-1,0,560)" d="M502.0312 150.5982V141.9541L482.5822 122.5051V131.1491Z"/>
<path transform="matrix(1,0,0,-1,0,560)" d="M482.579 45.45974H483.87565V127.57804H482.579Z"/>
<path transform="matrix(1,0,0,-1,0,560)" d="M555.9975 150.5982V141.9541L536.5484 122.5051V131.1491Z"/>
<path transform="matrix(1,0,0,-1,0,560)" d="M536.5393 49.60887H537.8359V127.57804H536.5393Z"/>
<path transform="matrix(1,0,0,-1,0,560)" d="M609.9638 117.1025V108.4585L590.5147 89.00944V97.65347Z"/>
<path transform="matrix(1,0,0,-1,0,560)" d="M609.9638 150.5982V141.9541L590.5147 122.5051V131.1491Z"/>
<path transform="matrix(1,0,0,-1,0,560)" d="M590.5213 41.3322H591.81796V127.57804H590.5213Z"/>
<path transform="matrix(1,0,0,-1,0,560)" d="M663.93 150.5982V141.9541L644.481 122.5051V131.1491Z"/>
<path transform="matrix(1,0,0,-1,0,560)" d="M644.4817 45.45974H645.7783V127.57804H644.4817Z"/>
<path transform="matrix(1,0,0,-1,0,560)" d="M717.8963 150.5982V141.9541L698.4473 122.5051V131.1491Z"/>
<path transform="matrix(1,0,0,-1,0,560)" d="M698.4421 49.60887H699.7387V127.57804H698.4421Z"/>
<path transform="matrix(1,0,0,-1,0,560)" d="M771.8626 184.0938V175.4498L752.4135 156.0007V164.6447Z"/>
<path transform="matrix(1,0,0,-1,0,560)" d="M752.4241 116.6865H753.72067V161.07363H752.4241Z"/>
<path transform="matrix(1,0,0,-1,0,560)" d="M825.8288 184.0938V175.4498L806.3798 156.0007V164.6447Z"/>
<path transform="matrix(1,0,0,-1,0,560)" d="M806.3844 116.6865H807.68099V161.07363H806.3844Z"/>
<path transform="matrix(1,0,0,-1,0,560)" d="M902.1487 184.0938V175.4498L882.6996 156.0007V164.6447Z"/>
<path transform="matrix(1,0,0,-1,0,560)" d="M882.6896 116.6865H883.98617V161.07363H882.6896Z"/>
<path transform="matrix(1,0,0,-1,0,560)" d="M956.115 184.0938V175.4498L936.6659 156.0007V164.6447Z"/>
<path transform="matrix(1,0,0,-1,0,560)" d="M936.6716 116.6865H937.9682V161.07363H936.6716Z"/>
<path transform="matrix(1,0,0,-1,0,560)" d="M1049.587 167.346V158.702L1030.138 139.2529V147.8969Z"/>
<path transform="matrix(1,0,0,-1,0,560)" d="M1030.135 99.93873H1031.4317V144.32585H1030.135Z"/>
<path transform="matrix(1,0,0,-1,0,560)" d="M1103.554 167.346V158.702L1084.104 139.2529V147.8969Z"/>
<path transform="matrix(1,0,0,-1,0,560)" d="M1084.096 99.93873H1085.3926V144.32585H1084.096Z"/>
<path transform="matrix(1,0,0,-1,0,560)" d="M1157.52 167.346V158.702L1138.071 139.2529V147.8969Z"/>
<path transform="matrix(1,0,0,-1,0,560)" d="M1138.078 99.93873H1139.3745V144.32585H1138.078Z"/>
<path transform="matrix(1,0,0,-1,0,560)" d="M1211.486 167.346V158.702L1192.037 139.2529V147.8969Z"/>
<path transform="matrix(1,0,0,-1,0,560)" d="M1192.038 99.93873H1193.3346V144.32585H1192.038Z"/>
<path transform="matrix(1,0,0,-1,0,560)" d="M1265.452 167.346V158.702L1246.003 139.2529V147.8969Z"/>
<path transform="matrix(1,0,0,-1,0,560)" d="M1245.998 99.93873H1247.2946V144.32585H1245.998Z"/>
<path transform="matrix(1,0,0,-1,0,560)" d="M1319.419 167.346V158.702L1299.97 139.2529V147.8969Z"/>
<path transform="matrix(1,0,0,-1,0,560)" d="M1299.98 99.93873H1301.2766V144.32585H1299.98Z"/>
<path transform="matrix(1,0,0,-1,0,560)" d="M1373.385 167.346V158.702L1353.936 139.2529V147.8969Z"/>
<path transform="matrix(1,0,0,-1,0,560)" d="M1353.941 99.93873H1355.2376V144.32585H1353.941Z"/>
<path transform="matrix(1,0,0,-1,0,560)" d="M1427.351 167.346V158.702L1407.902 139.2529V147.8969Z"/>
<path transform="matrix(1,0,0,-1,0,560)" d="M1407.901 99.93873H1409.1976V144.32585H1407.901Z"/>
<path transform="matrix(1,0,0,-1,0,560)" d="M1481.317 167.346V158.702L1461.868 139.2529V147.8969Z"/>
<path transform="matrix(1,0,0,-1,0,560)" d="M1461.861 99.93873H1463.1575V144.32585H1461.861Z"/>
<path transform="matrix(1,0,0,-1,0,560)" d="M1535.284 167.346V158.702L1515.835 139.2529V147.8969Z"/>
<path transform="matrix(1,0,0,-1,0,560)" d="M1515.843 99.93873H1517.1395V144.32585H1515.843Z"/>
<path transform="matrix(1,0,0,-1,0,560)" d="M1612.159 141.2626C1612.354 141.3274 1612.743 141.3923 1613.002 141.3923 1615.077 141.3923 1616.762 139.7067 1616.762 137.6969 1616.762 135.6223 1615.077 133.9368 1613.067 133.9368 1610.992 133.9368 1609.307 135.6223 1609.307 137.6321 1609.307 139.3177 1610.474 140.8736 1612.159 141.2626Z"/>
<path transform="matrix(1,0,0,-1,0,560)" d="M1612.159 124.5148C1612.354 124.5796 1612.743 124.6444 1613.002 124.6444 1615.077 124.6444 1616.762 122.9589 1616.762 120.9491 1616.762 118.8745 1615.077 117.1889 1613.067 117.1889 1610.992 117.1889 1609.307 118.8745 1609.307 120.8843 1609.307 122.5699 1610.474 124.1258 1612.159 124.5148Z"/>
<path transform="matrix(1,0,0,-1,0,560)" d="M1622.273 95.768H1623.5695V302.2739H1622.273Z"/>
<path transform="matrix(1,0,0,-1,0,560)" d="M1630.917 95.768H1639.561V302.2739H1630.917Z"/>
<path transform="matrix(1,0,0,-1,0,560)" d="M428.6186 37.13984 537.8359 45.52456V53.88765L428.6186 45.50293ZM428.6186 49.69529 536.5393 57.97196V66.33505L428.6186 58.08002Z"/>
<path transform="matrix(1,0,0,-1,0,560)" d="M590.5213 37.13984 699.7387 45.52456V53.88765L590.5213 45.50293ZM590.5213 49.69529 698.4421 57.97196V66.33505L590.5213 58.08002Z"/>
<path transform="matrix(1,0,0,-1,0,560)" d="M752.4241 112.5158H937.9682V120.8789H752.4241ZM752.4241 125.0713H882.6896V133.4344H752.4241Z"/>
<path transform="matrix(1,0,0,-1,0,560)" d="M1030.135 95.768H1139.374V104.1311H1030.135ZM1030.135 108.3235H1138.078V116.6865H1030.135Z"/>
<path transform="matrix(1,0,0,-1,0,560)" d="M1192.038 95.768H1301.277V104.1311H1192.038ZM1192.038 108.3235H1299.98V116.6865H1192.038Z"/>
<path transform="matrix(1,0,0,-1,0,560)" d="M1353.941 95.768H1517.14V104.1311H1353.941ZM1353.941 108.3235H1461.861V116.6865H1353.941Z"/>
<text xml:space="preserve" transform="matrix(.5 0 0 .5 8 8)" font-size="65" font-family="Times" font-style="italic"><tspan y="1071.687" x="932.908">3</tspan></text>
<text xml:space="preserve" transform="matrix(.5 0 0 .5 8 8)" font-size="65" font-family="Times" font-style="italic"><tspan y="1071.687" x="1256.713">3</tspan></text>
<path transform="matrix(1,0,0,-1,0,560)" d="M752.4241 214.3425V203.5375M902.1387 214.3425V203.5375M752.4241 214.3425H809.9933M844.5694 214.3425H902.1387"/>
<path transform="matrix(2.161008,0,0,2.161008,8,8)" stroke-width="1" stroke-linecap="butt" stroke-miterlimit="4" stroke-linejoin="miter" fill="none" stroke="#000000" d="M344.48 156.25V161.25M413.76 156.25V161.25M344.48 156.25H371.12M387.12 156.25H413.76"/>
<text xml:space="preserve" transform="matrix(.5 0 0 .5 8 8)" font-size="65" font-family="Times" font-style="italic"><tspan y="692.0412" x="1622.313">3</tspan></text>
<text xml:space="preserve" transform="matrix(.5 0 0 .5 8 8)" font-size="65" font-family="Times" font-style="italic"><tspan y="962.7291" x="2135.941">3</tspan></text>
<text xml:space="preserve" transform="matrix(.5 0 0 .5 8 8)" font-size="65" font-family="Times" font-style="italic"><tspan y="962.7291" x="2459.747">3</tspan></text>
<path transform="matrix(1,0,0,-1,0,560)" d="M1353.941 197.5947V186.7896M1481.31 197.5947V186.7896M1353.941 197.5947H1400.337M1434.914 197.5947H1481.31"/>
<path transform="matrix(2.161008,0,0,2.161008,8,8)" stroke-width="1" stroke-linecap="butt" stroke-miterlimit="4" stroke-linejoin="miter" fill="none" stroke="#000000" d="M622.83 164V169M681.77 164V169M622.83 164H644.3M660.3 164H681.77"/>
<text xml:space="preserve" transform="matrix(.5 0 0 .5 8 8)" font-size="65" font-family="Times" font-style="italic"><tspan y="725.5369" x="2803.001">3</tspan></text>
<path transform="matrix(1,0,0,-1,0,560)" d="M175.1324 95.768H176.42902V369.2652H175.1324Z"/>
</g>
</svg>
